<?xml version="1.0" encoding="utf-8"?>
<!-- Generator: Adobe Illustrator 16.0.4, SVG Export Plug-In . SVG Version: 6.00 Build 0)  -->
<!DOCTYPE svg PUBLIC "-//W3C//DTD SVG 1.1//EN" "http://www.w3.org/Graphics/SVG/1.1/DTD/svg11.dtd">
<svg version="1.1" id="Layer_1" xmlns="http://www.w3.org/2000/svg" xmlns:xlink="http://www.w3.org/1999/xlink" x="0px" y="0px"
	 width="21.998px" height="15.999px" viewBox="0 0 21.998 15.999" enable-background="new 0 0 21.998 15.999" xml:space="preserve">
<path fill="#FFFFFF" d="M21.704,3.24c-0.243-0.282-0.603-0.445-0.983-0.445H6.344l-0.14-0.698C6.116,1.651,5.779,1.289,5.329,1.154
	L1.656,0.055C0.982-0.145,0.267,0.217,0.058,0.867c-0.209,0.649,0.168,1.338,0.841,1.54l2.942,0.88l2.243,9.482
	c0.078,0.4,0.353,0.726,0.717,0.889c-0.011,0.084-0.017,0.17-0.017,0.257c0,1.149,0.97,2.084,2.163,2.084
	c1.193,0,2.163-0.935,2.163-2.084c0-0.048-0.002-0.096-0.006-0.143h3.415c-0.004,0.047-0.006,0.095-0.006,0.143
	c0,1.149,0.97,2.084,2.163,2.084c1.193,0,2.163-0.935,2.163-2.084c0-0.051-0.003-0.102-0.006-0.153
	c0.546-0.064,0.997-0.461,1.101-0.993l2.043-8.516C22.046,3.894,21.946,3.521,21.704,3.24z M8.947,14.929
	c-0.581,0-1.053-0.455-1.053-1.015s0.473-1.015,1.053-1.015c0.581,0,1.053,0.456,1.053,1.015S9.528,14.929,8.947,14.929z
	 M16.675,14.929c-0.581,0-1.053-0.455-1.053-1.015s0.473-1.015,1.053-1.015c0.581,0,1.053,0.456,1.053,1.015
	S17.256,14.929,16.675,14.929z M17.417,10.707H8.666c-0.423,0-0.766-0.33-0.766-0.738c0-0.408,0.343-0.739,0.766-0.739h8.751
	c0.423,0,0.766,0.331,0.766,0.739C18.184,10.377,17.841,10.707,17.417,10.707z M17.417,6.769H8.666C8.243,6.769,7.9,6.438,7.9,6.031
	c0-0.408,0.343-0.739,0.766-0.739h8.751c0.423,0,0.766,0.331,0.766,0.739C18.184,6.438,17.841,6.769,17.417,6.769z"/>
</svg>
