<?xml version="1.0" encoding="utf-8"?>
<!-- Generator: Adobe Illustrator 16.0.4, SVG Export Plug-In . SVG Version: 6.00 Build 0)  -->
<!DOCTYPE svg PUBLIC "-//W3C//DTD SVG 1.1//EN" "http://www.w3.org/Graphics/SVG/1.1/DTD/svg11.dtd">
<svg version="1.1" id="Layer_1" xmlns="http://www.w3.org/2000/svg" xmlns:xlink="http://www.w3.org/1999/xlink" x="0px" y="0px"
	 width="16px" height="11.999px" viewBox="0 0 16 11.999" enable-background="new 0 0 16 11.999" xml:space="preserve">
<path fill-rule="evenodd" clip-rule="evenodd" fill="#60C8F2" d="M12.006,6.639c0.851-0.567,1.885-1.243,3.101-2.029
	C15.446,4.388,15.744,4.141,16,3.868v6.583L12.006,6.639z M14.474,3.698c-1.445,0.957-2.535,1.679-3.275,2.17
	c-0.406,0.27-0.709,0.471-0.903,0.599c-0.029,0.019-0.074,0.051-0.133,0.091c-0.064,0.044-0.146,0.1-0.246,0.169
	C9.722,6.861,9.562,6.969,9.433,7.052C9.305,7.134,9.151,7.226,8.969,7.328c-0.182,0.102-0.353,0.18-0.514,0.23
	c-0.161,0.05-0.31,0.076-0.446,0.076H8H7.991c-0.137,0-0.286-0.026-0.446-0.076C7.384,7.508,7.213,7.43,7.031,7.328
	S6.695,7.134,6.567,7.052C6.439,6.969,6.278,6.861,6.085,6.728c-0.101-0.07-0.182-0.125-0.246-0.169
	c-0.06-0.04-0.105-0.072-0.133-0.091C5.456,6.3,5.154,6.099,4.804,5.866C4.394,5.593,3.916,5.275,3.366,4.912
	C2.348,4.24,1.738,3.834,1.536,3.698c-0.37-0.239-0.718-0.567-1.045-0.985C0.164,2.296,0,1.908,0,1.551
	c0-0.444,0.124-0.812,0.371-1.109C0.618,0.148,0.97,0,1.429,0h13.143c0.387,0,0.722,0.133,1.005,0.4C15.858,0.667,16,0.988,16,1.363
	c0,0.449-0.146,0.877-0.437,1.287C15.271,3.059,14.908,3.408,14.474,3.698z M3.995,6.638L0,10.451V3.868
	C0.262,4.147,0.562,4.395,0.902,4.61C2.166,5.431,3.196,6.105,3.995,6.638z M5.339,7.55c0.34,0.238,0.615,0.424,0.826,0.558
	s0.492,0.27,0.844,0.409c0.351,0.14,0.679,0.209,0.982,0.209H8h0.009c0.304,0,0.631-0.069,0.982-0.209
	c0.351-0.139,0.632-0.275,0.843-0.409c0.211-0.134,0.487-0.32,0.826-0.558c0.1-0.068,0.205-0.141,0.314-0.216l4.533,4.327
	c-0.265,0.224-0.577,0.337-0.937,0.337H1.429c-0.36,0-0.672-0.113-0.937-0.337l4.534-4.327C5.14,7.412,5.245,7.484,5.339,7.55z"/>
</svg>
