<?xml version="1.0" encoding="utf-8"?>
<!-- Generator: Adobe Illustrator 16.0.4, SVG Export Plug-In . SVG Version: 6.00 Build 0)  -->
<!DOCTYPE svg PUBLIC "-//W3C//DTD SVG 1.1//EN" "http://www.w3.org/Graphics/SVG/1.1/DTD/svg11.dtd">
<svg version="1.1" id="Layer_1" xmlns="http://www.w3.org/2000/svg" xmlns:xlink="http://www.w3.org/1999/xlink" x="0px" y="0px"
	 width="46.996px" height="40.015px" viewBox="0 0 46.996 40.015" enable-background="new 0 0 46.996 40.015" xml:space="preserve">
<path fill="#80C8A6" d="M30.547,38.476h-1.566c-0.433,0-0.783,0.345-0.783,0.77s0.351,0.77,0.783,0.77h1.566
	c0.433,0,0.783-0.345,0.783-0.77S30.98,38.476,30.547,38.476z"/>
<path fill="#80C8A6" d="M24.281,38.476h-7.833c-0.433,0-0.784,0.345-0.784,0.77s0.351,0.77,0.784,0.77h7.833
	c0.432,0,0.783-0.345,0.783-0.77S24.713,38.476,24.281,38.476z"/>
<path fill="#80C8A6" d="M11.749,38.476H0.783C0.351,38.476,0,38.821,0,39.246s0.351,0.77,0.783,0.77h10.966
	c0.432,0,0.783-0.345,0.783-0.77S12.181,38.476,11.749,38.476z"/>
<path fill="#80C8A6" d="M45.983,19.464l-2.147-2.109l-0.757-8.89c0-2.122-1.757-3.848-3.916-3.848H33.68
	c-0.432,0-0.783,0.345-0.783,0.77s0.351,0.77,0.783,0.77h5.483c1.273,0,2.35,1.058,2.352,2.372l0.713,8.401h-2.581l1-1.965
	c0.194-0.38,0.037-0.841-0.35-1.032c-0.388-0.19-0.858-0.036-1.051,0.344l-1.35,2.652h-4.215c-0.433,0-0.783,0.345-0.783,0.77
	s0.351,0.77,0.783,0.77h9.075l2.121,2.084c0.446,0.438,0.552,1.447,0.554,1.764v0.77h-0.783c-0.433,0-0.784,0.345-0.784,0.77
	s0.351,0.769,0.784,0.769h0.783v6.156H43.8c-0.381-2.606-2.663-4.618-5.42-4.618c-3.024,0-5.483,2.417-5.483,5.387
	c0,2.97,2.46,5.387,5.483,5.387c2.757,0,5.039-2.011,5.42-4.617h2.413c0.432,0,0.783-0.345,0.783-0.77v-9.234
	C46.996,22.126,46.968,20.43,45.983,19.464z M38.38,35.398c-2.16,0-3.917-1.727-3.917-3.848s1.757-3.847,3.917-3.847
	c2.159,0,3.916,1.726,3.916,3.847S40.54,35.398,38.38,35.398z"/>
<path fill="#80C8A6" d="M11.749,29.242c-1.295,0-2.35,1.036-2.35,2.308c0,1.273,1.055,2.309,2.35,2.309s2.35-1.036,2.35-2.309
	C14.099,30.278,13.044,29.242,11.749,29.242z M11.749,32.32c-0.432,0-0.783-0.346-0.783-0.77c0-0.424,0.352-0.77,0.783-0.77
	c0.431,0,0.783,0.346,0.783,0.77C12.532,31.975,12.18,32.32,11.749,32.32z"/>
<path fill="#80C8A6" d="M46.213,38.476H33.68c-0.432,0-0.783,0.345-0.783,0.77s0.351,0.77,0.783,0.77h12.533
	c0.432,0,0.783-0.345,0.783-0.77S46.645,38.476,46.213,38.476z"/>
<path fill="#80C8A6" d="M38.38,29.242c-1.296,0-2.35,1.036-2.35,2.308c0,1.273,1.054,2.309,2.35,2.309
	c1.295,0,2.35-1.036,2.35-2.309C40.73,30.278,39.676,29.242,38.38,29.242z M38.38,32.32c-0.432,0-0.784-0.346-0.784-0.77
	c0-0.424,0.352-0.77,0.784-0.77s0.783,0.346,0.783,0.77C39.164,31.975,38.812,32.32,38.38,32.32z"/>
<path fill="#80C8A6" d="M30.547,0H3.917C1.757,0,0,1.726,0,3.848v24.625c0,2.157,1.72,3.847,3.917,3.847
	c0.432,0,0.783-0.345,0.783-0.77s-0.351-0.769-0.783-0.769c-1.318,0-2.35-1.014-2.35-2.308V3.848c0-1.273,1.054-2.309,2.35-2.309
	h25.848v21.547H3.917c-0.433,0-0.784,0.345-0.784,0.77s0.351,0.77,0.784,0.77h25.848v6.156H17.169
	c-0.381-2.606-2.664-4.617-5.42-4.617c-3.023,0-5.483,2.416-5.483,5.386c0,2.971,2.459,5.387,5.483,5.387
	c2.756,0,5.039-2.011,5.42-4.617h13.378c0.433,0,0.783-0.345,0.783-0.77V0.77C31.331,0.345,30.98,0,30.547,0z M11.749,35.398
	c-2.16,0-3.917-1.727-3.917-3.848s1.757-3.847,3.917-3.847c2.159,0,3.916,1.726,3.916,3.847S13.908,35.398,11.749,35.398z"/>
</svg>
