<?xml version="1.0" encoding="utf-8"?>
<!-- Generator: Adobe Illustrator 16.0.4, SVG Export Plug-In . SVG Version: 6.00 Build 0)  -->
<!DOCTYPE svg PUBLIC "-//W3C//DTD SVG 1.1//EN" "http://www.w3.org/Graphics/SVG/1.1/DTD/svg11.dtd">
<svg version="1.1" id="Layer_1" xmlns="http://www.w3.org/2000/svg" xmlns:xlink="http://www.w3.org/1999/xlink" x="0px" y="0px"
	 width="45.001px" height="40px" viewBox="0 0 45.001 40" enable-background="new 0 0 45.001 40" xml:space="preserve">
<path fill="#EA1582" d="M16.844,26.384l7.341,2.244c-0.009,0.047-0.028,0.104-0.047,0.151c-0.197,0.538-0.599,0.839-1.253,0.943
	c-2.413,0.386-6.415,0.141-6.453,0.141c-0.617-0.038-1.15,0.434-1.188,1.056c-0.037,0.623,0.43,1.16,1.048,1.197
	c0.178,0.01,4.283,0.265,6.948-0.169c2.647-0.424,3.404-2.772,3.264-4.253c-0.047-0.462-0.355-0.848-0.795-0.98l-8.22-2.508
	c-4.059-1.235-8.51,1.046-8.697,1.141c-0.019,0.009-0.047,0.019-0.066,0.038l-8.183,4.988c-0.533,0.321-0.701,1.019-0.384,1.556
	c0.215,0.35,0.58,0.547,0.963,0.547c0.196,0,0.393-0.056,0.58-0.16l8.146-4.951C10.205,27.176,13.786,25.451,16.844,26.384z"/>
<path fill="#EA1582" d="M44.863,24.488c-0.646-1.188-2.656-3.083-5.705-1.726c-2.88,1.292-8.969,4.244-9.034,4.272
	c-0.561,0.272-0.795,0.943-0.524,1.509c0.271,0.565,0.945,0.801,1.496,0.528c0.065-0.029,6.116-2.97,8.969-4.244
	c0.813-0.368,1.496-0.368,2.085,0c0.019,0.01,0.028,0.019,0.047,0.029L26.945,36.125c-1.085,0.801-2.46,1.131-3.778,0.924
	L9.559,34.861c-0.318-0.047-0.646,0.039-0.898,0.245L5.22,38.001c-0.477,0.396-0.542,1.112-0.14,1.593
	C5.304,39.858,5.622,40,5.94,40c0.253,0,0.505-0.084,0.72-0.264l3.049-2.565l13.112,2.112c1.908,0.312,3.9-0.179,5.461-1.329
	l16.272-12.013C44.994,25.601,45.134,24.988,44.863,24.488z"/>
<path fill="#EA1582" d="M24.073,23.188c1.749,0,3.385-0.689,4.629-1.933c2.553-2.574,2.553-6.752,0-9.326
	c-1.235-1.246-2.88-1.934-4.629-1.934c-1.749,0-3.385,0.688-4.629,1.934c-2.553,2.574-2.553,6.751,0,9.326
	C20.688,22.499,22.325,23.188,24.073,23.188z M21.034,13.531c0.814-0.82,1.889-1.273,3.039-1.273s2.226,0.453,3.04,1.273
	c1.674,1.688,1.674,4.441,0,6.129c-0.814,0.821-1.889,1.273-3.04,1.273s-2.226-0.452-3.039-1.273
	C19.36,17.973,19.36,15.219,21.034,13.531z"/>
<path fill="#EA1582" d="M31.752,10.297c1.365,0,2.646-0.538,3.61-1.509c1.992-2.008,1.992-5.271,0-7.279
	C34.398,0.537,33.117,0,31.752,0c-1.365,0-2.647,0.537-3.61,1.509c-1.992,2.008-1.992,5.271,0,7.279
	C29.105,9.77,30.396,10.297,31.752,10.297z M29.732,3.112c0.542-0.547,1.262-0.85,2.029-0.85s1.487,0.302,2.029,0.85
	c1.113,1.122,1.113,2.96,0,4.083c-0.542,0.547-1.262,0.849-2.029,0.849s-1.487-0.302-2.029-0.849
	C28.619,6.063,28.619,4.234,29.732,3.112z"/>
</svg>
