<?xml version="1.0" encoding="utf-8"?>
<!-- Generator: Adobe Illustrator 16.0.4, SVG Export Plug-In . SVG Version: 6.00 Build 0)  -->
<!DOCTYPE svg PUBLIC "-//W3C//DTD SVG 1.1//EN" "http://www.w3.org/Graphics/SVG/1.1/DTD/svg11.dtd">
<svg version="1.1" id="Layer_1" xmlns="http://www.w3.org/2000/svg" xmlns:xlink="http://www.w3.org/1999/xlink" x="0px" y="0px"
	 width="45.005px" height="39.99px" viewBox="0 0 45.005 39.99" enable-background="new 0 0 45.005 39.99" xml:space="preserve">
<path fill="#56BFCB" d="M38.958,5.858C35.06,2.082,29.875,0,24.365,0C18.753,0,13.503,2.144,9.586,6.037
	C9.16,6.458,9.169,7.14,9.605,7.562c0.435,0.413,1.139,0.404,1.574-0.018c3.5-3.472,8.177-5.382,13.186-5.382
	c10.158-0.01,18.418,7.992,18.418,17.832c0,9.841-8.26,17.842-18.418,17.842c-10.158,0-18.417-8.001-18.417-17.842v-0.224
	l1.833,1.776c0.213,0.207,0.5,0.314,0.787,0.314c0.287,0,0.564-0.108,0.787-0.314c0.436-0.421,0.436-1.103,0-1.525l-3.722-3.615
	c-0.436-0.421-1.139-0.421-1.574,0l-3.731,3.615c-0.436,0.422-0.436,1.104,0,1.525c0.435,0.422,1.139,0.422,1.574,0l1.833-1.776
	v0.224c0,5.337,2.148,10.361,6.047,14.138c3.898,3.776,9.084,5.857,14.593,5.857c5.51,0,10.695-2.082,14.593-5.857
	c3.898-3.777,6.038-8.8,6.038-14.138C45.005,14.658,42.856,9.634,38.958,5.858z"/>
<path fill="#56BFCB" d="M30.272,12.72L16.624,25.933c-0.435,0.422-0.435,1.104,0,1.525c0.213,0.207,0.5,0.314,0.787,0.314
	s0.565-0.107,0.787-0.314l13.649-13.222c0.435-0.422,0.435-1.104,0-1.525C31.412,12.298,30.708,12.298,30.272,12.72z"/>
<path fill="#56BFCB" d="M26.698,21.618c-1.546,1.499-1.546,3.948,0,5.445c0.75,0.726,1.75,1.13,2.815,1.13s2.065-0.404,2.815-1.13
	c1.546-1.498,1.546-3.947,0-5.445c-0.75-0.726-1.75-1.13-2.815-1.13S27.458,20.892,26.698,21.618z M30.754,25.547
	c-0.333,0.323-0.769,0.494-1.241,0.494s-0.907-0.18-1.241-0.494c-0.685-0.664-0.685-1.74,0-2.404
	c0.333-0.323,0.769-0.493,1.241-0.493s0.907,0.179,1.241,0.493C31.439,23.807,31.439,24.883,30.754,25.547z"/>
<path fill="#56BFCB" d="M19.253,11.76c-1.065,0-2.065,0.404-2.815,1.13c-0.75,0.727-1.167,1.696-1.167,2.728
	c0,1.031,0.417,2,1.167,2.727c0.75,0.726,1.75,1.13,2.815,1.13s2.065-0.404,2.815-1.13c0.75-0.727,1.167-1.695,1.167-2.727
	c0-1.032-0.417-2-1.167-2.728C21.309,12.164,20.318,11.76,19.253,11.76z M20.494,16.819c-0.333,0.323-0.769,0.494-1.241,0.494
	s-0.907-0.18-1.241-0.494c-0.333-0.323-0.509-0.745-0.509-1.202c0-0.458,0.185-0.879,0.509-1.202
	c0.333-0.323,0.769-0.494,1.241-0.494s0.907,0.18,1.241,0.494c0.333,0.323,0.509,0.744,0.509,1.202
	C21.003,16.066,20.828,16.497,20.494,16.819z"/>
</svg>
