<?xml version="1.0" encoding="utf-8"?>
<!-- Generator: Adobe Illustrator 16.0.4, SVG Export Plug-In . SVG Version: 6.00 Build 0)  -->
<!DOCTYPE svg PUBLIC "-//W3C//DTD SVG 1.1//EN" "http://www.w3.org/Graphics/SVG/1.1/DTD/svg11.dtd">
<svg version="1.1" id="Layer_1" xmlns="http://www.w3.org/2000/svg" xmlns:xlink="http://www.w3.org/1999/xlink" x="0px" y="0px"
	 width="34.027px" height="40.001px" viewBox="0 0 34.027 40.001" enable-background="new 0 0 34.027 40.001" xml:space="preserve">
<path fill="#B06E96" d="M33.913,33.287l-5.853-10.27c0.593-0.277,0.949-0.909,0.91-1.62l-0.435-3.634l2.491-2.606
	c0.554-0.554,0.593-1.501,0.04-2.173l-2.491-2.686l0.514-3.673c0.079-0.79-0.475-1.58-1.266-1.738l-3.598-0.711l-1.74-3.2
	c-0.356-0.75-1.226-1.066-2.017-0.75h-0.04l-3.322,1.541l-3.242-1.581c-0.356-0.197-0.791-0.237-1.187-0.118
	c-0.396,0.118-0.712,0.395-0.91,0.75L9.99,4.017L6.392,4.649C5.561,4.807,5.008,5.558,5.086,6.426l0.435,3.634L3.03,12.667
	c-0.554,0.553-0.593,1.501-0.04,2.172l2.491,2.686l-0.514,3.674c-0.079,0.711,0.356,1.383,1.028,1.659L0.104,33.287
	c-0.158,0.236-0.119,0.553,0,0.79c0.158,0.237,0.395,0.395,0.672,0.395h6.327l2.886,5.016c0.158,0.237,0.396,0.396,0.672,0.396
	s0.554-0.158,0.672-0.396l5.655-9.638l5.655,9.756c0.158,0.237,0.396,0.395,0.672,0.395c0.277,0,0.554-0.158,0.672-0.395
	l2.887-5.135h6.327c0.277,0,0.554-0.158,0.672-0.395C34.071,33.839,34.071,33.523,33.913,33.287z M10.702,37.513L8.25,33.287
	c-0.158-0.237-0.396-0.395-0.672-0.395H2.121l5.457-9.638l2.254,0.396l1.74,3.199c0.356,0.75,1.226,1.066,2.017,0.75h0.04
	l1.621-0.75l0.791,1.382L10.702,37.513z M12.995,26.177c-0.04,0-0.04,0-0.04,0l-1.74-3.278c-0.237-0.396-0.633-0.711-1.107-0.751
	l-3.638-0.671l0.514-3.634c0.079-0.474-0.079-0.987-0.395-1.303l-2.452-2.686l2.491-2.607c0.355-0.355,0.514-0.83,0.435-1.304
	L6.629,6.348c0,0,0-0.04,0.04-0.079l3.598-0.632c0.435-0.079,0.87-0.356,1.107-0.791l1.78-3.199l3.242,1.58
	c0.435,0.237,0.989,0.237,1.424,0l3.282-1.501c0.04,0,0.04,0,0.04,0l1.74,3.279c0.237,0.395,0.632,0.711,1.067,0.75l3.599,0.711
	L27.033,10.1c-0.079,0.474,0.079,0.988,0.396,1.304l2.491,2.686l-2.53,2.607c-0.356,0.355-0.514,0.829-0.435,1.303l0.435,3.634
	l-3.559,0.593c-0.435,0.079-0.87,0.356-1.107,0.79l-1.78,3.2l-3.242-1.581c-0.435-0.236-0.989-0.236-1.424,0L12.995,26.177z
	 M26.439,32.892c-0.277,0-0.554,0.158-0.672,0.395l-2.452,4.345l-5.575-9.638c-0.04-0.119-0.079-0.198-0.158-0.276l-0.87-1.541
	l0.277-0.119l3.243,1.58c0.237,0.118,0.475,0.158,0.711,0.158c0.554,0,1.107-0.276,1.384-0.79l1.779-3.2l2.373-0.434l5.417,9.52
	H26.439z"/>
<path fill="#B06E96" d="M24.897,13.931c0-4.345-3.559-7.9-7.909-7.9s-7.909,3.555-7.909,7.9c0,4.346,3.559,7.9,7.909,7.9
	S24.897,18.277,24.897,13.931z M16.989,20.251c-3.479,0-6.327-2.843-6.327-6.32c0-3.476,2.847-6.32,6.327-6.32
	c3.48,0,6.327,2.844,6.327,6.32C23.315,17.408,20.469,20.251,16.989,20.251z"/>
</svg>
