<?xml version="1.0" encoding="utf-8"?>
<!-- Generator: Adobe Illustrator 16.0.4, SVG Export Plug-In . SVG Version: 6.00 Build 0)  -->
<!DOCTYPE svg PUBLIC "-//W3C//DTD SVG 1.1//EN" "http://www.w3.org/Graphics/SVG/1.1/DTD/svg11.dtd">
<svg version="1.1" id="Layer_1" xmlns="http://www.w3.org/2000/svg" xmlns:xlink="http://www.w3.org/1999/xlink" x="0px" y="0px"
	 width="40px" height="40px" viewBox="0 0 40 40" enable-background="new 0 0 40 40" xml:space="preserve">
<path fill="#E966A6" d="M32.508,34.74c-0.255-0.335-0.729-0.4-1.059-0.14c-3.194,2.518-7.022,3.849-11.072,3.849
	c-9.988,0-18.152-8.282-18.152-18.462c0-3.674,1.093-7.178,2.98-10.202v3.279c0,0.425,0.338,0.77,0.754,0.77
	c0.417,0,0.755-0.344,0.755-0.77V7.679c0-0.425-0.26-0.717-0.677-0.717H0.755C0.338,6.962,0,7.307,0,7.731
	c0,0.425,0.338,0.77,0.755,0.77h3.596c-2.353,3.269-3.596,7.335-3.596,11.512C0.755,31.042,9.557,40,20.377,40
	c4.387,0,8.535-1.449,11.996-4.177C32.703,35.562,32.763,35.077,32.508,34.74z"/>
<path fill="#E966A6" d="M39.245,32.347h-3.402C38.528,28.885,40,24.478,40,20.013C40,8.985,31.197,0,20.377,0
	c-4.518,0-8.928,1.597-12.418,4.508c-0.322,0.269-0.37,0.75-0.106,1.078c0.264,0.33,0.739,0.376,1.062,0.107
	c3.221-2.687,7.292-4.167,11.462-4.167c9.987,0,18.074,8.281,18.074,18.46c0,4.087-1.36,8.061-3.813,11.28v-3.588
	c0-0.425-0.338-0.77-0.754-0.77c-0.417,0-0.755,0.344-0.755,0.77v5.385c0,0.425,0.416,0.821,0.833,0.821h5.283
	c0.417,0,0.755-0.344,0.755-0.769C40,32.691,39.662,32.347,39.245,32.347z"/>
</svg>
