<?xml version="1.0" encoding="utf-8"?>
<!-- Generator: Adobe Illustrator 16.0.4, SVG Export Plug-In . SVG Version: 6.00 Build 0)  -->
<!DOCTYPE svg PUBLIC "-//W3C//DTD SVG 1.1//EN" "http://www.w3.org/Graphics/SVG/1.1/DTD/svg11.dtd">
<svg version="1.1" id="Layer_1" xmlns="http://www.w3.org/2000/svg" xmlns:xlink="http://www.w3.org/1999/xlink" x="0px" y="0px"
	 width="39px" height="44px" viewBox="0 0 39 44" enable-background="new 0 0 39 44" xml:space="preserve">
<path fill="#8078A7" d="M31.261,35.981c0.16-0.129,0.262-0.326,0.262-0.547c0-0.006,0-31.923,0-31.923
	c0-0.388-0.314-0.702-0.701-0.702H10.54C10.04,1.184,8.527,0,6.743,0C4.988,0,3.453,1.171,2.947,2.809H0.701
	C0.313,2.809,0,3.123,0,3.511v39.788C0,43.686,0.313,44,0.701,44h22.263c0.227,0,0.423-0.103,0.552-0.262L31.261,35.981z
	 M23.671,41.597v-5.46h5.452L23.671,41.597z M6.743,1.404c0.997,0,1.862,0.571,2.289,1.405H4.455
	C4.885,1.971,5.761,1.404,6.743,1.404z M1.402,4.213h7.912v4.915c0,0.645-0.524,1.17-1.168,1.17c-0.645,0-1.168-0.525-1.168-1.17
	V6.319c0-0.388-0.314-0.703-0.701-0.703S5.575,5.931,5.575,6.319v2.809c0,1.419,1.153,2.574,2.57,2.574
	c1.417,0,2.57-1.155,2.57-2.574V4.213h19.405v30.519h-7.15c-0.387,0-0.701,0.314-0.701,0.702v7.162H1.402V4.213z"/>
<path fill="#8078A7" d="M25.213,32.345c0.387,0,0.701-0.314,0.701-0.702c0-0.388-0.314-0.703-0.701-0.703H6.309
	c-0.387,0-0.701,0.314-0.701,0.703c0,0.387,0.314,0.702,0.701,0.702H25.213z"/>
<path fill="#8078A7" d="M6.309,28.132h18.904c0.387,0,0.701-0.314,0.701-0.702c0-0.388-0.314-0.703-0.701-0.703H6.309
	c-0.387,0-0.701,0.314-0.701,0.703C5.608,27.818,5.922,28.132,6.309,28.132z"/>
<path fill="#8078A7" d="M6.309,23.919h18.904c0.387,0,0.701-0.314,0.701-0.703c0-0.387-0.314-0.702-0.701-0.702H6.309
	c-0.387,0-0.701,0.314-0.701,0.702C5.608,23.605,5.922,23.919,6.309,23.919z"/>
<path fill="#8078A7" d="M6.309,19.707h18.904c0.387,0,0.701-0.314,0.701-0.702c0-0.388-0.314-0.702-0.701-0.702H6.309
	c-0.387,0-0.701,0.313-0.701,0.702C5.608,19.392,5.922,19.707,6.309,19.707z"/>
<path fill="#8078A7" d="M6.309,15.494h18.904c0.387,0,0.701-0.314,0.701-0.702s-0.314-0.702-0.701-0.702H6.309
	c-0.387,0-0.701,0.314-0.701,0.702S5.922,15.494,6.309,15.494z"/>
<path fill="#8078A7" d="M34.56,2.809h-0.935c-0.387,0-0.701,0.314-0.701,0.702s0.314,0.702,0.701,0.702h0.234v38.383h-7.484
	c-0.387,0-0.701,0.313-0.701,0.702c0,0.387,0.314,0.702,0.701,0.702h8.185c0.387,0,0.701-0.314,0.701-0.702V3.511
	C35.261,3.123,34.947,2.809,34.56,2.809z"/>
<path fill="#8078A7" d="M38.299,2.809h-0.935c-0.387,0-0.701,0.314-0.701,0.702s0.314,0.702,0.701,0.702h0.234v38.383h-0.234
	c-0.387,0-0.701,0.313-0.701,0.702c0,0.387,0.314,0.702,0.701,0.702h0.935C38.686,44,39,43.686,39,43.298V3.511
	C39,3.123,38.686,2.809,38.299,2.809z"/>
</svg>
