<?xml version="1.0" encoding="utf-8"?>
<!-- Generator: Adobe Illustrator 16.0.4, SVG Export Plug-In . SVG Version: 6.00 Build 0)  -->
<!DOCTYPE svg PUBLIC "-//W3C//DTD SVG 1.1//EN" "http://www.w3.org/Graphics/SVG/1.1/DTD/svg11.dtd">
<svg version="1.1" id="Layer_1" xmlns="http://www.w3.org/2000/svg" xmlns:xlink="http://www.w3.org/1999/xlink" x="0px" y="0px"
	 width="148.997px" height="31.995px" viewBox="0 0 148.997 31.995" enable-background="new 0 0 148.997 31.995"
	 xml:space="preserve">
<path d="M24.551,9.394c-1.067,0-1.932-0.866-1.932-1.934c0-1.068,0.865-1.934,1.932-1.934c1.067,0,1.932,0.866,1.932,1.934
	C26.482,8.528,25.617,9.394,24.551,9.394z"/>
<path d="M22.736,0H9.225C4.13,0,0,4.135,0,9.235V22.76c0,5.1,4.13,9.235,9.225,9.235h13.511c5.095,0,9.225-4.135,9.225-9.235V9.235
	C31.962,4.135,27.832,0,22.736,0z M29.018,22.998c0,3.385-2.742,6.13-6.124,6.13H9.067c-3.382,0-6.124-2.745-6.124-6.13V9.157
	c0-3.386,2.742-6.131,6.124-6.131h13.827c3.382,0,6.124,2.745,6.124,6.131V22.998z"/>
<path d="M15.981,7.776c-4.58,0-8.293,3.717-8.293,8.302c0,4.584,3.713,8.301,8.293,8.301s8.293-3.717,8.293-8.301
	C24.274,11.493,20.561,7.776,15.981,7.776z M15.981,21.458c-2.969,0-5.376-2.409-5.376-5.381c0-2.973,2.407-5.382,5.376-5.382
	s5.376,2.409,5.376,5.382C21.357,19.049,18.95,21.458,15.981,21.458z"/>
<path d="M24.551,5.526c-1.067,0-1.932,0.866-1.932,1.934c0,1.068,0.865,1.934,1.932,1.934c1.067,0,1.932-0.866,1.932-1.934
	C26.482,6.392,25.617,5.526,24.551,5.526z"/>
<path d="M148.885,16.474c-0.116-0.086-0.268-0.2-0.414-0.108c-0.205,0.067-0.292,0.278-0.336,0.471
	c-0.179,0.635-0.27,1.305-0.586,1.893c-0.135,0.245-0.315,0.494-0.585,0.599c-0.303,0.123-0.667-0.011-0.857-0.268
	c-0.2-0.268-0.31-0.59-0.397-0.91c-0.147-0.567-0.217-1.15-0.262-1.733c-0.157-2.118-0.055-4.243,0.057-6.359
	c-0.011-0.358-0.225-0.682-0.491-0.907c-0.366-0.319-0.834-0.479-1.285-0.635c-0.399-0.119-0.86-0.184-1.239,0.025
	c-0.266,0.14-0.378,0.434-0.493,0.692c-0.448,1.037-0.799,2.112-1.121,3.194c-0.284,0.978-0.536,1.967-0.677,2.977
	c-0.007,0.054-0.034,0.097-0.08,0.128c-0.067-0.42-0.073-0.847-0.104-1.27c-0.097-1.363-0.175-2.729-0.161-4.096
	c0-0.268-0.06-0.54-0.196-0.772c-0.378-0.64-1.134-0.948-1.848-1.002c-0.335-0.021-0.752,0.033-0.93,0.359
	c-0.238,0.407-0.426,0.84-0.608,1.274c-0.463,1.173-0.869,2.366-1.257,3.565c-0.016-0.151-0.018-0.304-0.015-0.456
	c0.004-1.314-0.001-2.629,0.003-3.943c0.013-0.2-0.159-0.343-0.321-0.423c-0.433-0.222-0.93-0.236-1.398-0.324
	c-0.176-0.02-0.367-0.094-0.53,0.006c-0.224,0.096-0.305,0.357-0.287,0.583c-0.004,2.66-0.019,5.32-0.025,7.979
	c-0.096,0.406-0.31,0.775-0.486,1.151c-0.223,0.419-0.481,0.838-0.865,1.128c-0.281,0.213-0.699,0.258-0.992,0.046
	c-0.264-0.194-0.385-0.514-0.479-0.815c-0.323-1.176-0.275-2.407-0.284-3.615c-0.005-1.582,0.062-3.162,0.102-4.743
	c-0.002-0.296,0.106-0.643-0.116-0.888c-0.343-0.391-0.879-0.51-1.368-0.597c-0.333-0.047-0.756-0.063-0.989,0.226
	c-0.157,0.266-0.082,0.591-0.127,0.883c-0.291-0.488-0.681-0.932-1.191-1.197c-0.824-0.467-1.87-0.467-2.713-0.05
	c-0.76,0.365-1.329,1.033-1.738,1.757c-0.52,0.959-0.827,2.021-0.991,3.096c-0.228,1.433-0.161,2.904,0.125,4.323
	c-0.128,0.549-0.407,1.082-0.829,1.462c-0.257,0.203-0.596,0.373-0.929,0.285c-0.338-0.106-0.524-0.434-0.669-0.732
	c-0.237-0.563-0.361-1.167-0.442-1.771c-0.223-1.352,0.075-2.713,0.306-4.043c0.108-0.501,0.152-1.02,0.344-1.5
	c0.142-0.363,0.113-0.765,0.025-1.137c-0.082-0.348-0.338-0.664-0.687-0.767c-0.49-0.155-1.014-0.067-1.503,0.044
	c-0.712,0.181-1.437,0.298-2.162,0.413c0.063-0.328,0.114-0.665,0.058-0.998c-0.048-0.327-0.219-0.656-0.52-0.816
	c-0.396-0.213-0.88-0.202-1.304-0.083c-0.557,0.157-0.957,0.653-1.12,1.192c-0.102,0.358-0.185,0.74-0.098,1.11
	c0.099,0.454,0.408,0.826,0.745,1.131c-0.252,1.275-0.752,2.487-1.344,3.639c-0.481,0.95-1.043,1.857-1.658,2.725
	c0.019-2.711,0.058-5.424,0.083-8.136c0.014-0.275,0.014-0.62-0.255-0.779c-0.437-0.247-0.936-0.354-1.426-0.434
	c-0.291-0.039-0.681-0.021-0.827,0.283c-0.096,0.262-0.035,0.549-0.093,0.819c-0.128-0.208-0.268-0.41-0.434-0.59
	c-0.64-0.652-1.571-0.95-2.47-0.943c-0.194,0.016-0.369,0.107-0.546,0.181c-0.912,0.432-1.646,1.187-2.15,2.052
	c-0.499,0.848-0.788,1.805-0.953,2.771c-0.233,1.438-0.203,2.907-0.038,4.351c0.03,0.159-0.053,0.305-0.111,0.448
	c-0.223,0.498-0.476,1.013-0.915,1.355c-0.272,0.215-0.687,0.287-0.975,0.064c-0.307-0.249-0.425-0.648-0.52-1.016
	c-0.113-0.512-0.186-1.032-0.209-1.555c-0.075-2.408,0.024-4.817,0.095-7.223c-0.008-0.274-0.23-0.479-0.452-0.605
	c-0.365-0.206-0.781-0.308-1.194-0.355c-0.309-0.027-0.696-0.013-0.879,0.281c-0.13,0.271-0.062,0.587-0.104,0.876
	c-0.326-0.611-0.852-1.124-1.502-1.377c-1.005-0.424-2.221-0.192-3.05,0.5c-0.761,0.613-1.242,1.5-1.582,2.4
	c-0.451,1.241-0.659,2.563-0.674,3.883c-0.024,0.248,0.028,0.503-0.037,0.748c-0.175,0.554-0.368,1.104-0.635,1.623
	c-0.228,0.449-0.495,0.893-0.881,1.225c-0.243,0.21-0.564,0.345-0.889,0.314c-0.25-0.031-0.452-0.219-0.562-0.437
	c-0.271-0.502-0.343-1.08-0.411-1.638c-0.154-1.437-0.021-2.88,0.007-4.318c0.055-1.577,0.097-3.155,0.157-4.732
	c1.096-0.016,2.192-0.051,3.288-0.069c0.214,0.015,0.352-0.186,0.449-0.349c0.163-0.312,0.215-0.683,0.169-1.03
	c-0.033-0.234-0.295-0.29-0.492-0.299c-1.129-0.066-2.258-0.129-3.387-0.181c0.06-1.122,0.105-2.244,0.151-3.366
	c-0.115-0.11-0.244-0.209-0.392-0.27c-0.479-0.208-0.99-0.335-1.504-0.42c-0.287-0.037-0.62-0.065-0.856,0.136
	c-0.194,0.227-0.184,0.541-0.192,0.821c-0.037,0.978-0.059,1.956-0.101,2.933c-0.859-0.012-1.719-0.023-2.578-0.035
	c-0.079,0.006-0.177-0.018-0.227,0.059c-0.332,0.366-0.465,0.873-0.468,1.357c0.01,0.203,0.049,0.447,0.239,0.561
	c0.964,0.026,1.929,0.027,2.894,0.045c-0.023,2.111-0.017,4.223-0.044,6.333c-0.21,1.382-1.016,2.625-2.058,3.533
	c0.058-0.378,0.11-0.761,0.051-1.142c-0.084-0.737-0.5-1.388-1-1.916c-0.955-0.99-2.103-1.761-3.209-2.568
	c0.345-0.414,0.674-0.847,0.927-1.325c0.261-0.482,0.468-1.019,0.444-1.576c-0.01-0.296-0.143-0.6-0.402-0.758
	c-0.375-0.228-0.846-0.29-1.27-0.181c-0.445,0.088-0.876,0.259-1.247,0.521c-0.523,0.397-0.923,0.963-1.094,1.6
	c-0.188,0.653-0.088,1.379,0.268,1.957c0.093,0.187,0.256,0.328,0.362,0.504c-0.301,0.606-0.639,1.193-0.964,1.787
	c-0.554,0.958-1.109,1.92-1.755,2.82c-0.228,0.309-0.459,0.62-0.743,0.879c-0.127,0.106-0.273,0.232-0.45,0.213
	c-0.187-0.03-0.28-0.213-0.344-0.37c-0.105-0.284-0.139-0.587-0.156-0.888c-0.037-0.63,0.013-1.261,0.023-1.891
	c0.053-1.545,0.099-3.09,0.145-4.635c0.005-0.282,0.05-0.578-0.063-0.847c-0.174-0.457-0.585-0.767-1.006-0.981
	c-0.457-0.221-0.934-0.463-1.455-0.442c-0.694,0.015-1.294,0.461-1.73,0.969c-0.252,0.259-0.447,0.565-0.652,0.861
	c-0.917,1.438-1.498,3.054-2.086,4.645c-0.009-1.795,0.017-3.592,0.024-5.388c-0.011-0.175,0.05-0.387-0.093-0.522
	c-0.281-0.287-0.688-0.381-1.062-0.479c-0.333-0.072-0.688-0.163-1.023-0.056c-0.168,0.055-0.211,0.252-0.204,0.408
	c-0.024,3.237-0.044,6.474-0.071,9.711c-0.006,0.575,0.023,1.168,0.253,1.704c0.111,0.259,0.31,0.507,0.592,0.582
	c0.316,0.067,0.643,0.022,0.963,0.069c0.264,0.045,0.545-0.004,0.756-0.176c0.25-1.687,0.638-3.353,1.175-4.971
	c0.632-1.849,1.449-3.682,2.758-5.156c0.059-0.086,0.167-0.088,0.259-0.109c0.031,0.292-0.006,0.586-0.013,0.879
	c-0.046,1.368-0.117,2.735-0.135,4.104c-0.017,1.076-0.07,2.158,0.073,3.229c0.093,0.598,0.254,1.208,0.635,1.692
	c0.291,0.372,0.771,0.608,1.247,0.536c0.708-0.095,1.336-0.497,1.861-0.965c0.725-0.657,1.297-1.465,1.771-2.317
	c0.792-1.33,1.632-2.629,2.415-3.964c0.55,0.492,1.108,0.976,1.641,1.486c0.568,0.572,1.108,1.29,1.113,2.132
	c-0.026,0.446-0.096,0.914-0.346,1.295c-0.274,0.408-0.826,0.561-1.288,0.439c-0.473-0.103-0.878-0.388-1.237-0.703
	c-0.231-0.149-0.487-0.39-0.783-0.293c-0.318,0.117-0.538,0.395-0.734,0.658c-0.2,0.285-0.409,0.617-0.354,0.982
	c0.085,0.332,0.373,0.562,0.655,0.731c0.586,0.331,1.26,0.46,1.922,0.527c0.767,0.069,1.552,0.09,2.304-0.104
	c0.953-0.23,1.819-0.763,2.502-1.462c0.891-0.871,1.493-1.983,2.004-3.109c0.081,0.968,0.238,1.948,0.651,2.836
	c0.219,0.485,0.523,0.94,0.931,1.289c0.503,0.428,1.19,0.627,1.844,0.543c0.569-0.075,1.076-0.394,1.48-0.788
	c0.346-0.328,0.615-0.724,0.87-1.123c0.251-0.447,0.495-0.903,0.644-1.396c0.285,1.104,0.759,2.251,1.724,2.93
	c0.535,0.371,1.207,0.527,1.853,0.449c0.594-0.048,1.18-0.229,1.688-0.545c0.79-0.481,1.383-1.236,1.77-2.069
	c0.084,0.623,0.341,1.225,0.738,1.713c0.604,0.729,1.647,1.105,2.567,0.844c0.924-0.289,1.526-1.132,1.943-1.96
	c0.138,0.252,0.296,0.495,0.476,0.72c0.472,0.619,1.116,1.165,1.902,1.304c1.134,0.147,2.317-0.263,3.135-1.059
	c0.33-0.283,0.563-0.651,0.826-0.994c0.012,0.412,0.077,0.824,0.067,1.236c-0.569,0.527-1.139,1.056-1.706,1.586
	c-0.706,0.677-1.455,1.312-2.103,2.047c-0.64,0.722-1.235,1.52-1.531,2.449c-0.166,0.495-0.139,1.029-0.052,1.537
	c0.12,0.583,0.435,1.126,0.895,1.505c0.654,0.554,1.523,0.763,2.36,0.822c0.673-0.042,1.344-0.216,1.936-0.544
	c0.794-0.422,1.38-1.156,1.754-1.961c0.49-1.084,0.666-2.277,0.74-3.454c0.072-1.485,0.025-2.973,0.01-4.459
	c1.309-1.543,2.475-3.213,3.426-5c0.552-1.045,1.044-2.129,1.374-3.267c0.669-0.019,1.338-0.042,2.008-0.01
	c0.004,0.067,0.003,0.134-0.002,0.201c-0.325,1.211-0.46,2.465-0.544,3.714c-0.04,0.558-0.064,1.121,0.008,1.677
	c0.13,1.15,0.571,2.305,1.409,3.127c0.657,0.654,1.645,1.029,2.563,0.776c0.929-0.248,1.577-1.062,1.954-1.908
	c0.322,0.719,0.851,1.37,1.562,1.73c0.482,0.246,1.042,0.311,1.575,0.247c0.487-0.048,0.967-0.18,1.398-0.413
	c0.888-0.46,1.558-1.265,1.971-2.165c0.12,0.667,0.371,1.331,0.837,1.833c0.57,0.628,1.488,0.898,2.31,0.711
	c0.582-0.139,1.075-0.521,1.456-0.972c0.239-0.264,0.404-0.58,0.604-0.872c0.031,0.363,0.038,0.728,0.065,1.091
	c0.007,0.188,0.111,0.364,0.268,0.467c0.371,0.258,0.833,0.296,1.27,0.34c0.366,0.029,0.764,0.038,1.094-0.15
	c0.176-0.098,0.287-0.292,0.288-0.495c0.016-1.116,0.066-2.235,0.219-3.344c0.248-1.904,0.736-3.807,1.698-5.483
	c0.073-0.013,0.236-0.104,0.222,0.037c0.098,1.977,0.184,3.959,0.437,5.923c0.069,0.473,0.148,0.954,0.354,1.391
	c0.192,0.423,0.503,0.811,0.931,1.011c0.418,0.205,0.92,0.168,1.344-0.004c0.184-0.045,0.339-0.195,0.333-0.396
	c0.052-1.545,0.284-3.081,0.657-4.58c0.284-1.156,0.645-2.3,1.179-3.366c0.037-0.083,0.088-0.161,0.167-0.212
	c-0.048,1.911-0.112,3.833,0.138,5.733c0.143,0.955,0.358,1.932,0.897,2.748c0.421,0.661,1.156,1.115,1.943,1.152
	c0.858,0.1,1.719-0.356,2.194-1.065c0.599-0.854,0.761-1.925,0.802-2.946C148.99,16.833,149.035,16.613,148.885,16.474z
	 M94.121,15.074c-0.101,1.017-0.294,2.043-0.748,2.967c-0.257,0.499-0.604,0.988-1.115,1.251c-0.249,0.135-0.555,0.146-0.817,0.042
	c-0.399-0.142-0.691-0.481-0.884-0.846c-0.343-0.674-0.443-1.438-0.497-2.181c-0.051-0.967-0.01-1.94,0.121-2.899
	c0.106-0.737,0.272-1.479,0.624-2.141c0.265-0.487,0.684-0.942,1.249-1.056c0.425-0.101,0.885,0.045,1.2,0.341
	c0.383,0.353,0.59,0.851,0.724,1.344C94.233,12.934,94.202,14.016,94.121,15.074z M105.756,16.743
	c-0.171,0.687-0.42,1.367-0.84,1.942c-0.181,0.254-0.407,0.477-0.668,0.646c-0.308,0.191-0.708,0.228-1.036,0.069
	c-0.527-0.239-0.832-0.779-1.011-1.305c-0.355-1.114-0.344-2.303-0.294-3.459c0.078-1.029,0.258-2.069,0.7-3.01
	c0.304-0.604,0.774-1.193,1.453-1.379c0.327-0.102,0.701-0.054,0.982,0.146c0.372,0.258,0.597,0.677,0.743,1.096
	c0.224,0.685,0.288,1.41,0.297,2.128C106.088,14.667,106.005,15.723,105.756,16.743z M106.333,24.888
	c-0.043,0.923-0.104,1.862-0.414,2.741c-0.162,0.458-0.431,0.896-0.841,1.168c-0.455,0.284-1.03,0.284-1.535,0.152
	c-0.406-0.104-0.725-0.448-0.826-0.852c-0.15-0.52-0.039-1.07,0.17-1.556c0.581-1.364,1.549-2.522,2.594-3.556
	c0.297-0.27,0.568-0.572,0.897-0.806C106.373,23.083,106.347,23.985,106.333,24.888z M126.894,15.18
	c-0.113,1.152-0.337,2.332-0.942,3.337c-0.265,0.403-0.594,0.81-1.067,0.969c-0.361,0.133-0.767,0.001-1.056-0.231
	c-0.444-0.366-0.67-0.922-0.805-1.467c-0.268-1.118-0.237-2.281-0.162-3.42c0.09-1.013,0.235-2.054,0.717-2.965
	c0.268-0.511,0.719-0.972,1.311-1.066c0.393-0.076,0.812,0.062,1.105,0.33c0.401,0.349,0.621,0.857,0.75,1.363
	C127.002,13.057,126.979,14.131,126.894,15.18z"/>
<path d="M56.8,15.342c0.001-4.116,0-8.232,0.001-12.348c0.017-0.242-0.144-0.449-0.325-0.59c-0.352-0.281-0.797-0.397-1.226-0.506
	c-0.286-0.066-0.591-0.114-0.88-0.035c-0.486,0.125-0.926,0.377-1.347,0.644c-0.622,0.423-1.198,0.916-1.716,1.461
	c-0.801,0.87-1.427,1.898-1.848,3.002c-0.289,0.747-0.507,1.53-0.561,2.332c0.017,0.905,0.257,1.835,0.827,2.555
	c0.475,0.594,1.096,1.092,1.817,1.35c0.215,0.067,0.5,0.167,0.682-0.021c0.123-0.196,0.074-0.463-0.073-0.635
	c-0.342-0.429-0.554-0.946-0.694-1.473c-0.166-0.683-0.223-1.395-0.139-2.093c0.097-1.075,0.335-2.147,0.8-3.125
	c0.355-0.766,0.854-1.463,1.459-2.052c0.13-0.119,0.25-0.278,0.442-0.286c0.02,0.128,0.031,0.258,0.029,0.388
	c-0.025,5.015-0.034,10.031-0.062,15.046c-0.037,1.068-0.125,2.147-0.439,3.174c-0.104,0.302-0.223,0.604-0.248,0.925
	c-0.016,0.117,0.05,0.215,0.125,0.295c0.332,0.027,0.646-0.111,0.932-0.264c0.341-0.184,0.631-0.446,0.886-0.734
	c0.776-0.799,1.196-1.879,1.383-2.963C56.874,18.055,56.789,16.692,56.8,15.342z"/>
</svg>
