<?xml version="1.0" encoding="utf-8"?>
<!-- Generator: Adobe Illustrator 16.0.4, SVG Export Plug-In . SVG Version: 6.00 Build 0)  -->
<!DOCTYPE svg PUBLIC "-//W3C//DTD SVG 1.1//EN" "http://www.w3.org/Graphics/SVG/1.1/DTD/svg11.dtd">
<svg version="1.1" id="Layer_1" xmlns="http://www.w3.org/2000/svg" xmlns:xlink="http://www.w3.org/1999/xlink" x="0px" y="0px"
	 width="12.206px" height="17.714px" viewBox="0 0 12.206 17.714" enable-background="new 0 0 12.206 17.714" xml:space="preserve">
<path fill-rule="evenodd" clip-rule="evenodd" fill="#333333" d="M6.357,17.601c-0.066,0.073-0.158,0.114-0.254,0.114
	c-0.096,0-0.188-0.041-0.254-0.114c-0.561-0.618-1.667-1.901-2.777-3.525C1.67,12.025,0,9.022,0,6.343C0,2.846,2.738,0,6.103,0
	c3.365,0,6.103,2.846,6.103,6.343c0,2.676-1.668,5.679-3.067,7.727C8.028,15.695,6.919,16.979,6.357,17.601z M6.103,2.387
	c-2.055,0-3.726,1.738-3.726,3.873c0,2.136,1.671,3.874,3.726,3.874S9.83,8.396,9.83,6.26C9.83,4.125,8.158,2.387,6.103,2.387z"/>
</svg>
