<?xml version="1.0" encoding="utf-8"?>
<!-- Generator: Adobe Illustrator 16.0.4, SVG Export Plug-In . SVG Version: 6.00 Build 0)  -->
<!DOCTYPE svg PUBLIC "-//W3C//DTD SVG 1.1//EN" "http://www.w3.org/Graphics/SVG/1.1/DTD/svg11.dtd">
<svg version="1.1" id="Layer_1" xmlns="http://www.w3.org/2000/svg" xmlns:xlink="http://www.w3.org/1999/xlink" x="0px" y="0px"
	 width="15.982px" height="15.987px" viewBox="0 0 15.982 15.987" enable-background="new 0 0 15.982 15.987" xml:space="preserve">
<path fill="#FFFFFF" d="M15.544,15.547c-0.584,0.586-1.534,0.586-2.119,0L9.758,11.88c0.85-0.546,1.573-1.27,2.119-2.119
	l3.667,3.668C16.129,14.013,16.129,14.963,15.544,15.547z M5.994,11.99C2.684,11.99,0,9.305,0,5.996C0,2.685,2.684,0,5.994,0
	s5.994,2.685,5.994,5.996C11.987,9.305,9.304,11.99,5.994,11.99z M5.994,1.499c-2.479,0-4.495,2.017-4.495,4.497
	c0,2.479,2.016,4.496,4.495,4.496c2.479,0,4.495-2.016,4.495-4.496C10.489,3.516,8.472,1.499,5.994,1.499z M3.496,5.996H2.498
	c0-1.929,1.568-3.498,3.496-3.498v0.999C4.617,3.497,3.496,4.617,3.496,5.996z"/>
</svg>
