<?xml version="1.0" encoding="utf-8"?>
<!-- Generator: Adobe Illustrator 16.0.4, SVG Export Plug-In . SVG Version: 6.00 Build 0)  -->
<!DOCTYPE svg PUBLIC "-//W3C//DTD SVG 1.1//EN" "http://www.w3.org/Graphics/SVG/1.1/DTD/svg11.dtd">
<svg version="1.1" id="Layer_1" xmlns="http://www.w3.org/2000/svg" xmlns:xlink="http://www.w3.org/1999/xlink" x="0px" y="0px"
	 width="30.999px" height="30.999px" viewBox="0 0 30.999 30.999" enable-background="new 0 0 30.999 30.999" xml:space="preserve">
<path fill="#F57E20" d="M15.514,12.846c1.48-0.005,2.659-1.194,2.654-2.678C18.162,8.685,16.98,7.504,15.5,7.503
	c-1.493-0.002-2.686,1.201-2.674,2.698C12.837,11.678,14.029,12.851,15.514,12.846z"/>
<path fill="#F57E20" d="M15.5,0C6.939,0,0,6.939,0,15.5c0,8.56,6.939,15.499,15.5,15.499S30.999,24.059,30.999,15.5
	C30.999,6.939,24.06,0,15.5,0z M15.521,4.714c3.019,0.007,5.442,2.477,5.426,5.53c-0.015,2.981-2.478,5.398-5.492,5.388
	c-2.983-0.01-5.43-2.483-5.412-5.471C10.061,7.14,12.509,4.705,15.521,4.714z M21.636,17.777c-0.667,0.686-1.471,1.181-2.363,1.527
	c-0.844,0.327-1.768,0.491-2.683,0.602c0.138,0.15,0.204,0.224,0.29,0.311c1.242,1.248,2.489,2.491,3.727,3.743
	c0.422,0.427,0.51,0.955,0.278,1.451c-0.253,0.542-0.822,0.899-1.38,0.861c-0.353-0.025-0.629-0.2-0.874-0.447
	c-0.937-0.943-1.892-1.87-2.81-2.831c-0.268-0.279-0.396-0.226-0.632,0.017c-0.943,0.971-1.901,1.926-2.865,2.876
	c-0.433,0.427-0.948,0.504-1.45,0.261c-0.534-0.259-0.873-0.804-0.847-1.352c0.019-0.37,0.2-0.654,0.455-0.907
	c1.23-1.227,2.456-2.458,3.682-3.688c0.081-0.082,0.157-0.168,0.275-0.294c-1.672-0.175-3.18-0.586-4.471-1.596
	c-0.161-0.125-0.326-0.247-0.472-0.387C8.93,17.382,8.873,16.76,9.319,16.12c0.383-0.548,1.025-0.694,1.692-0.38
	c0.129,0.061,0.252,0.137,0.37,0.219c2.406,1.653,5.711,1.699,8.126,0.074c0.239-0.183,0.495-0.333,0.792-0.408
	c0.576-0.148,1.114,0.064,1.423,0.568C22.076,16.768,22.071,17.33,21.636,17.777z"/>
</svg>
