<?xml version="1.0" encoding="utf-8"?>
<!-- Generator: Adobe Illustrator 16.0.4, SVG Export Plug-In . SVG Version: 6.00 Build 0)  -->
<!DOCTYPE svg PUBLIC "-//W3C//DTD SVG 1.1//EN" "http://www.w3.org/Graphics/SVG/1.1/DTD/svg11.dtd">
<svg version="1.1" id="Layer_1" xmlns="http://www.w3.org/2000/svg" xmlns:xlink="http://www.w3.org/1999/xlink" x="0px" y="0px"
	 width="14px" height="14px" viewBox="0 0 14 14" enable-background="new 0 0 14 14" xml:space="preserve">
<path fill="#FFFFFF" d="M11.375,9.625H10.5c-0.966,0-1.75-0.784-1.75-1.75V7.312c0.387-0.46,0.665-1.004,0.837-1.58
	c0.018-0.097,0.111-0.146,0.173-0.212c0.335-0.334,0.401-0.9,0.149-1.302C9.876,4.158,9.815,4.105,9.818,4.029
	c0-0.514,0.002-1.027-0.001-1.54C9.804,1.87,9.627,1.226,9.192,0.768c-0.35-0.37-0.831-0.591-1.328-0.685
	C7.237-0.037,6.581-0.031,5.96,0.127C5.422,0.263,4.916,0.578,4.603,1.045c-0.277,0.406-0.398,0.9-0.418,1.386
	C4.177,2.954,4.183,3.477,4.181,4c0.012,0.104-0.077,0.176-0.117,0.262C3.827,4.692,3.932,5.277,4.312,5.589
	c0.097,0.066,0.115,0.188,0.15,0.292C4.627,6.399,4.902,6.877,5.25,7.293v0.581c0,0.966-0.784,1.75-1.75,1.75H2.625
	c0,0-1.586,0.437-2.625,2.625v0.875C0,13.608,0.392,14,0.875,14h12.25C13.608,14,14,13.608,14,13.125V12.25
	C12.961,10.062,11.375,9.625,11.375,9.625z"/>
</svg>
